<svg xmlns="http://www.w3.org/2000/svg" version="1.1" xmlns:xlink="http://www.w3.org/1999/xlink" xmlns:svgjs="http://svgjs.dev/svgjs" width="1500" height="937" viewBox="0 0 1500 937"><g transform="matrix(1,0,0,1,0,0)"><svg viewBox="0 0 512 320" data-background-color="#000000" preserveAspectRatio="xMidYMid meet" height="937" width="1500" xmlns="http://www.w3.org/2000/svg" xmlns:xlink="http://www.w3.org/1999/xlink"><g id="tight-bounds" transform="matrix(1,0,0,1,0,0)"><svg viewBox="0 0 512 320" height="320" width="512"><rect width="512" height="320" fill="url(#26b21e62-8a6f-4e4f-aaa3-6404a66d2fcc)" mask="url(#3b0f1dba-c3b5-4fdf-88c9-1923d10d69a8)" data-fill-palette-color="tertiary"></rect><g><svg></svg></g><g><svg viewBox="0 0 512 320" height="320" width="512"><g><path d="M96 160c0-88.366 71.634-160 160-160 88.366 0 160 71.634 160 160 0 88.366-71.634 160-160 160-88.366 0-160-71.634-160-160zM256 308.977c82.278 0 148.977-66.699 148.977-148.977 0-82.278-66.699-148.977-148.977-148.977-82.278 0-148.977 66.699-148.977 148.977 0 82.278 66.699 148.977 148.977 148.977z" fill="url(#26b21e62-8a6f-4e4f-aaa3-6404a66d2fcc)" fill-rule="nonzero" stroke="none" stroke-width="1" stroke-linecap="butt" stroke-linejoin="miter" stroke-miterlimit="10" stroke-dasharray="" stroke-dashoffset="0" font-family="none" font-weight="none" font-size="none" text-anchor="none" style="mix-blend-mode: normal" data-fill-palette-color="tertiary"></path></g><g transform="matrix(1,0,0,1,149.4537566298676,80)"><svg viewBox="0 0 213.0924867402648 160" height="160" width="213.0924867402648"><g><svg viewBox="0 0 213.0924867402648 160" height="160" width="213.0924867402648"><g><svg viewBox="0 0 256 192.21700692772674" height="160" width="213.0924867402648"><g transform="matrix(1,0,0,1,0,118.79782164520373)"><svg viewBox="0 0 256 73.41918528252302" height="73.41918528252302" width="256"><g id="textblocktransform"><svg viewBox="0 0 256 73.41918528252302" height="73.41918528252302" width="256" id="textblock"><g><svg viewBox="0 0 256 73.41918528252302" height="73.41918528252302" width="256"><g transform="matrix(1,0,0,1,0,0)"><svg width="256" viewBox="1.1 -37.2 152.19 43.650000000000006" height="73.41918528252302" data-palette-color="url(#0c5b9cd3-06ac-4d8c-a739-599f6a42e0f5)"></svg></g></svg></g></svg></g></svg></g><g transform="matrix(1,0,0,1,77.26734296977659,0)"><svg viewBox="0 0 101.46531406044681 101.46531406044681" height="101.46531406044681" width="101.46531406044681"><g><svg xmlns="http://www.w3.org/2000/svg" data-name="Layer 1" viewBox="0 0 128 128" x="0" y="0" height="101.46531406044681" width="101.46531406044681" class="icon-icon-0" data-fill-palette-color="accent" id="icon-0"><path d="M44 63A2 2 0 0 0 46 61V57.74C46 51.46 49.45 48 55.72 48H56.27A16.1 16.1 0 0 1 51.88 44.42C45.7 45.8 42 50.63 42 57.74V61A2 2 0 0 0 44 63" fill="#ff6cab" data-fill-palette-color="accent"></path><path d="M84 62A2 2 0 0 0 86 60V57.74C86 50.64 82.3 45.8 76.12 44.42A16.1 16.1 0 0 1 71.73 48H72.28C78.55 48 82 51.46 82 57.74V60A2 2 0 0 0 84 62" fill="#ff6cab" data-fill-palette-color="accent"></path><path d="M76 34A12 12 0 1 0 64 46 12 12 0 0 0 76 34M56 34A8 8 0 1 1 64 42 8 8 0 0 1 56 34" fill="#ff6cab" data-fill-palette-color="accent"></path><path d="M96 62A2 2 0 0 0 98 60V48A6 6 0 0 0 92 42H88A2 2 0 0 0 88 46H92A2 2 0 0 1 94 48V60A2 2 0 0 0 96 62" fill="#ff6cab" data-fill-palette-color="accent"></path><path d="M22 47H26.05A9.9 9.9 0 0 1 27.35 43H22A2 2 0 0 1 20 41V6A2 2 0 0 1 22 4H106A2 2 0 0 1 108 6V41A2 2 0 0 1 106 43H100.65A9.9 9.9 0 0 1 101.95 47H106A6 6 0 0 0 112 41V6A6 6 0 0 0 106 0H22A6 6 0 0 0 16 6V41A6 6 0 0 0 22 47" fill="#ff6cab" data-fill-palette-color="accent"></path><path d="M40 42H36A6 6 0 0 0 30 48V60A2 2 0 0 0 34 60V48A2 2 0 0 1 36 46H40A2 2 0 0 0 40 42" fill="#ff6cab" data-fill-palette-color="accent"></path><path d="M53 14A2 2 0 0 0 53 10H47A2 2 0 0 0 47 14Z" fill="#ff6cab" data-fill-palette-color="accent"></path><path d="M67 14A2 2 0 0 0 67 10H61A2 2 0 0 0 61 14Z" fill="#ff6cab" data-fill-palette-color="accent"></path><path d="M81 14A2 2 0 0 0 81 10H75A2 2 0 0 0 75 14Z" fill="#ff6cab" data-fill-palette-color="accent"></path><path d="M64 100A11 11 0 1 0 53 89 11 11 0 0 0 64 100M64 82A7 7 0 1 1 57 89 7 7 0 0 1 64 82" fill="#ff6cab" data-fill-palette-color="accent"></path><path d="M72.54 104H55.46C48.32 104 45 107.26 45 114.25V126A2 2 0 0 0 49 126V114.25C49 109.52 50.57 108 55.46 108H72.54C77.43 108 79 109.52 79 114.25V126A2 2 0 0 0 83 126V114.25C83 107.26 79.68 104 72.54 104" fill="#ff6cab" data-fill-palette-color="accent"></path><path d="M109 78A11 11 0 1 0 120 89 11 11 0 0 0 109 78M109 96A7 7 0 1 1 116 89 7 7 0 0 1 109 96" fill="#ff6cab" data-fill-palette-color="accent"></path><path d="M117.54 104H100.46C93.32 104 90 107.26 90 114.25V126A2 2 0 0 0 94 126V114.25C94 109.52 95.57 108 100.46 108H117.54C122.43 108 124 109.52 124 114.25V126A2 2 0 0 0 128 126V114.25C128 107.26 124.68 104 117.54 104" fill="#ff6cab" data-fill-palette-color="accent"></path><path d="M49 76A2 2 0 0 0 47 74H43A2 2 0 0 0 43 78H47A2 2 0 0 0 49 76" fill="#ff6cab" data-fill-palette-color="accent"></path><path d="M86 74H82A2 2 0 0 0 82 78H86A2 2 0 0 0 86 74" fill="#ff6cab" data-fill-palette-color="accent"></path><path d="M98.54 78.27L91.71 67A2 2 0 0 0 90 66H83.32A2 2 0 0 0 82.99 65.76L66.11 56.11 67.22 54.65A0.43 0.43 0 0 1 67.76 54.55L76.15 59.37A2 2 0 0 0 78.15 55.9L69.68 51A4.42 4.42 0 0 0 64.05 52.17L63.5 52.89 62.94 52.15A4.44 4.44 0 0 0 57.25 51.04L48.86 55.9A2 2 0 1 0 50.86 59.37L59.18 54.59C59.33 54.51 59.61 54.42 59.78 54.59L60.9 56.06 44 65.76A2 2 0 0 0 43.67 66H39A2 2 0 0 0 37.3 66.94L29.92 78.75A15 15 0 0 1 32.41 82.32L40.11 70H88.87L95.92 81.67A15 15 0 0 1 98.54 78.27M62.82 59.61A4.4 4.4 0 0 0 63.5 59.15 4 4 0 0 0 64.13 59.58L75.35 66H51.65Z" fill="#ff6cab" data-fill-palette-color="accent"></path><path d="M19 100A11 11 0 1 0 8 89 11 11 0 0 0 19 100M19 82A7 7 0 1 1 12 89 7 7 0 0 1 19 82" fill="#ff6cab" data-fill-palette-color="accent"></path><path d="M27.54 104H10.46C3.32 104 0 107.26 0 114.25V126A2 2 0 0 0 4 126V114.25C4 109.52 5.57 108 10.46 108H27.54C32.43 108 34 109.52 34 114.25V126A2 2 0 0 0 38 126V114.25C38 107.26 34.68 104 27.54 104" fill="#ff6cab" data-fill-palette-color="accent"></path><path d="M2 16A2 2 0 0 0 4 14V2A2 2 0 0 0 0 2V14A2 2 0 0 0 2 16" fill="#ff6cab" data-fill-palette-color="accent"></path><path d="M10 8A2 2 0 0 0 12 6V2A2 2 0 0 0 8 2V6A2 2 0 0 0 10 8" fill="#ff6cab" data-fill-palette-color="accent"></path><path d="M126 0A2 2 0 0 0 124 2V14A2 2 0 0 0 128 14V2A2 2 0 0 0 126 0" fill="#ff6cab" data-fill-palette-color="accent"></path><path d="M118 8A2 2 0 0 0 120 6V2A2 2 0 0 0 116 2V6A2 2 0 0 0 118 8" fill="#ff6cab" data-fill-palette-color="accent"></path></svg></g></svg></g><g></g></svg></g></svg></g></svg></g></svg></g><defs></defs><mask id="30e0867d-4e28-4b2f-acf2-13dee2d895ac"><g id="SvgjsG1922"><svg viewBox="0 0 512 320" height="320" width="512"><g><svg></svg></g><g><svg viewBox="0 0 512 320" height="320" width="512"><g><path d="M96 160c0-88.366 71.634-160 160-160 88.366 0 160 71.634 160 160 0 88.366-71.634 160-160 160-88.366 0-160-71.634-160-160zM256 308.977c82.278 0 148.977-66.699 148.977-148.977 0-82.278-66.699-148.977-148.977-148.977-82.278 0-148.977 66.699-148.977 148.977 0 82.278 66.699 148.977 148.977 148.977z" fill="black" fill-rule="nonzero" stroke="none" stroke-width="1" stroke-linecap="butt" stroke-linejoin="miter" stroke-miterlimit="10" stroke-dasharray="" stroke-dashoffset="0" font-family="none" font-weight="none" font-size="none" text-anchor="none" style="mix-blend-mode: normal"></path></g><g transform="matrix(1,0,0,1,149.4537566298676,80)"><svg viewBox="0 0 213.0924867402648 160" height="160" width="213.0924867402648"><g><svg viewBox="0 0 213.0924867402648 160" height="160" width="213.0924867402648"><g><svg viewBox="0 0 256 192.21700692772674" height="160" width="213.0924867402648"><g transform="matrix(1,0,0,1,0,118.79782164520373)"><svg viewBox="0 0 256 73.41918528252302" height="73.41918528252302" width="256"><g id="SvgjsG1921"><svg viewBox="0 0 256 73.41918528252302" height="73.41918528252302" width="256" id="SvgjsSvg1920"><g><svg viewBox="0 0 256 73.41918528252302" height="73.41918528252302" width="256"><g transform="matrix(1,0,0,1,0,0)"><svg width="256" viewBox="1.1 -37.2 152.19 43.650000000000006" height="73.41918528252302" data-palette-color="url(#0c5b9cd3-06ac-4d8c-a739-599f6a42e0f5)"><path d="M41.6-34.85L41.6-34.85Q42.65-34.85 42.65-34.1L42.65-34.1Q42.65-31.05 34.25-16.65L34.25-16.65Q34.6-15.3 35.35-13.5L35.35-13.5 50.25-24.85Q58.8-31.35 61.8-33.2L61.8-33.2Q68.5-37.2 74.95-37.2L74.95-37.2Q76.8-37.2 78.35-36.6L78.35-36.6Q79.3-36.25 79.3-35.3 79.3-34.35 78.8-34.35L78.8-34.35Q78.5-34.35 78.18-34.75 77.85-35.15 76.28-35.15 74.7-35.15 71.15-34.35L71.15-34.35Q65.55-33.1 58.45-28.75L58.45-28.75Q54-26 46.55-20.3 39.1-14.6 35.8-12.45L35.8-12.45Q38.35-7.1 42.35-2.5L42.35-2.5Q48.5 4.65 53.4 4.65L53.4 4.65Q55.8 4.65 55.8 2.8L55.8 2.8Q55.8 2.45 55.73 2.1 55.65 1.75 55.9 1.25 56.15 0.75 56.5 0.75L56.5 0.75Q57.15 0.75 57.35 2.3L57.35 2.3Q57.4 2.55 57.4 2.8L57.4 2.8Q57.4 4.4 55.78 5.43 54.15 6.45 51.93 6.45 49.7 6.45 48.2 5.75L48.2 5.75Q44.25 3.8 40.23-1.1 36.2-6 34.05-11.4L34.05-11.4Q31.3-9.8 29.5-9.65L29.5-9.65Q26.15-5.3 21.25-1.2L21.25-1.2Q18.6 1.05 15.5 2.43 12.4 3.8 9.55 3.8L9.55 3.8Q5.5 3.8 3.3 1.78 1.1-0.25 1.1-4.4L1.1-4.4Q1.1-6.45 1.9-8.2L1.9-8.2Q4.45-13.85 9.6-16L9.6-16Q12.45-17.25 15.28-17.25 18.1-17.25 19.05-15.4L19.05-15.4Q19.4-14.75 19.4-14.03 19.4-13.3 19.2-13.1 19-12.9 18.65-13.45L18.65-13.45Q17.45-15.65 16.1-15.9L16.1-15.9Q15.2-16 14.8-16L14.8-16Q10.9-16 7.5-12.75L7.5-12.75Q3.1-8.5 3.1-3.55L3.1-3.55Q3.1 1.85 9.2 2.55L9.2 2.55Q9.4 2.55 9.6 2.55L9.6 2.55Q11.8 2.55 15.25 0.6L15.25 0.6Q20.85-2.6 27.2-10.4L27.2-10.4Q26.05-11.45 26.05-13.5 26.05-15.55 27.58-17.38 29.1-19.2 31.75-19.2L31.75-19.2Q32.5-19.2 33.15-19.05L33.15-19.05Q35.65-23.25 38-28.13 40.35-33 40.35-33.75L40.35-33.75Q40.35-33.85 40.05-33.85 39.75-33.85 36.58-32.27 33.4-30.7 32.05-29.8 30.7-28.9 28.75-26.98 26.8-25.05 26.8-23.85L26.8-23.85Q26.8-23.3 27.58-22.75 28.35-22.2 30.4-22.2L30.4-22.2Q30.65-22.1 30.65-21.93 30.65-21.75 29.28-21.53 27.9-21.3 27.1-21.3L27.1-21.3Q25.3-21.3 25.3-22.8L25.3-22.8Q25.3-24.55 27.45-27 29.6-29.45 32.15-30.85L32.15-30.85Q39.6-34.85 41.6-34.85ZM33.65-12.45L33.65-12.45Q33.25-13.45 33-14.45L33-14.45Q32-13 31-11.6L31-11.6Q31.5-11.6 31.9-11.68 32.3-11.75 33.65-12.45ZM31.75-16.75L31.75-16.75Q31.15-17 30.43-17 29.7-17 28.98-16.1 28.25-15.2 28.25-14.18 28.25-13.15 28.8-12.45L28.8-12.45Q31.25-15.95 31.75-16.75ZM63.4-14.95L63.4-14.95 64.1-15.1Q64.65-15.1 65.15-14.65 65.65-14.2 65.65-13.95 65.65-13.7 62.55-9.13 59.45-4.55 59.45-2.75L59.45-2.75Q59.45-2.6 59.5-2.45L59.5-2.45Q59.75-1.3 60.6-1.3L60.6-1.3Q63.2-1.3 70.1-9.9L70.1-9.9Q70.25-10.1 70.45-10.1 70.65-10.1 70.65-9.73 70.65-9.35 70.2-8.75L70.2-8.75Q63.8-0.2 60.45-0.2L60.45-0.2Q60-0.2 59.6-0.35L59.6-0.35Q57.4-1.2 57.4-3.65L57.4-3.65Q57.4-4.5 57.6-5.35L57.6-5.35 54.5-2.35Q51.55 0.25 50.22 0.25 48.9 0.25 47.7-0.6L47.7-0.6Q46.35-1.6 46.35-3.25L46.35-3.25Q46.35-6.9 51.45-11.98 56.55-17.05 60.8-17.05L60.8-17.05Q62.45-17.05 63-15.9L63-15.9Q63.15-15.5 63.25-15.23 63.35-14.95 63.4-14.95ZM48.45-2.65L48.45-2.65Q48.45-0.85 49.7-0.85L49.7-0.85Q52.6-0.85 57.6-7.2L57.6-7.2 62.9-14.5Q62.5-15.2 61.6-15.2L61.6-15.2Q58.55-15.2 53.5-10.48 48.45-5.75 48.45-2.65ZM77.6 0.25L77.6 0.25Q73.85 0.25 73.85-3.9L73.85-3.9Q73.85-6 74.95-8.5 76.05-11 77.35-12.7L77.35-12.7Q77.1-12.65 76.7-12.65L76.7-12.65Q75.5-12.65 74.7-14.35L74.7-14.35 71-9.55Q67.9-5.7 67.4-5.7L67.4-5.7Q67.15-5.7 67.15-5.9L67.15-5.9Q67.15-6.4 68-7.35L68-7.35Q72.35-12.4 74.15-15.9L74.15-15.9Q75.3-20.25 77.05-20.25L77.05-20.25Q78.2-20.25 78.2-19.25 78.2-18.25 76.95-16.7L76.95-16.7 75.75-15.1Q75.75-14.05 77.3-14.05L77.3-14.05Q78.2-14.05 79.3-14.7L79.3-14.7 80.6-15.5Q80.7-15.55 81.1-15.55 81.5-15.55 81.95-15.05 82.4-14.55 82.25-14.15L82.25-14.15 78.8-9.8Q75.6-5.7 75.6-3.33 75.6-0.95 77.8-0.95L77.8-0.95Q80.1-0.95 83.45-3.4L83.45-3.4Q85.45-4.85 87.1-6.65L87.1-6.65Q88.65-8.45 88.8-8.45L88.8-8.45Q89.15-8.45 89.15-8.08 89.15-7.7 88.7-7.2L88.7-7.2 87.1-5.4Q85.75-4 84.1-2.7L84.1-2.7Q80.15 0.25 77.6 0.25ZM103.49-15.15L103.49-15.15Q109.09-24.25 111.29-24.25L111.29-24.25Q111.64-24.25 112.27-24.03 112.89-23.8 112.89-23.35L112.89-23.35Q112.89-23.1 112.64-22.7L112.64-22.7Q108.64-17.8 106.69-15.35L106.69-15.35Q100.79-7.9 100.19-4.65L100.19-4.65Q100.04-3.95 100.04-3.25L100.04-3.25Q100.04-1 101.89-1L101.89-1Q105.59-1 111.54-7.85L111.54-7.85Q112.04-8.35 112.39-8.43 112.74-8.5 112.74-8.25 112.74-8 112.44-7.65L112.44-7.65Q106.64-0.7 102.14 0.1L102.14 0.1Q101.89 0.15 101.44 0.15L101.44 0.15Q99.89 0.15 99.12-0.93 98.34-2 98.34-3.25L98.34-3.25Q98.34-4.65 98.89-6.35L98.89-6.35 94.84-2.3Q92.09 0.25 90.52 0.25 88.94 0.25 87.89-0.6L87.89-0.6Q86.64-1.55 86.64-3.25L86.64-3.25Q86.64-6.9 91.74-11.98 96.84-17.05 101.09-17.05L101.09-17.05Q102.49-17.05 103.04-16.3L103.04-16.3Q103.24-16.05 103.49-15.15ZM88.74-2.65L88.74-2.65Q88.74-0.85 89.99-0.85L89.99-0.85Q92.14-0.85 97.14-6.75L97.14-6.75Q98.04-7.8 103.14-14.6L103.14-14.6Q102.79-15.2 101.94-15.2L101.94-15.2Q98.84-15.2 93.79-10.48 88.74-5.75 88.74-2.65ZM127.04-14.95L127.04-14.95 127.74-15.1Q128.29-15.1 128.79-14.65 129.29-14.2 129.29-13.95 129.29-13.7 126.19-9.13 123.09-4.55 123.09-2.75L123.09-2.75Q123.09-2.6 123.14-2.45L123.14-2.45Q123.39-1.3 124.24-1.3L124.24-1.3Q126.84-1.3 133.74-9.9L133.74-9.9Q133.89-10.1 134.09-10.1 134.29-10.1 134.29-9.73 134.29-9.35 133.84-8.75L133.84-8.75Q127.44-0.2 124.09-0.2L124.09-0.2Q123.64-0.2 123.24-0.35L123.24-0.35Q121.04-1.2 121.04-3.65L121.04-3.65Q121.04-4.5 121.24-5.35L121.24-5.35 118.14-2.35Q115.19 0.25 113.87 0.25 112.54 0.25 111.34-0.6L111.34-0.6Q109.99-1.6 109.99-3.25L109.99-3.25Q109.99-6.9 115.09-11.98 120.19-17.05 124.44-17.05L124.44-17.05Q126.09-17.05 126.64-15.9L126.64-15.9Q126.79-15.5 126.89-15.23 126.99-14.95 127.04-14.95ZM112.09-2.65L112.09-2.65Q112.09-0.85 113.34-0.85L113.34-0.85Q116.24-0.85 121.24-7.2L121.24-7.2 126.54-14.5Q126.14-15.2 125.24-15.2L125.24-15.2Q122.19-15.2 117.14-10.48 112.09-5.75 112.09-2.65ZM139.09-15.8L139.09-15.8Q140.44-15.8 140.44-14.75L140.44-14.75Q140.44-14.45 140.29-14.15L140.29-14.15Q135.79-7.9 134.89-4.7L134.89-4.7Q146.54-16.35 149.04-16.35L149.04-16.35Q149.29-16.4 149.49-16.4L149.49-16.4Q150.89-16.4 150.89-15.15L150.89-15.15Q150.89-14.9 150.79-14.65 150.69-14.4 148.79-11.95L148.79-11.95Q146.59-9.35 145.06-6.95 143.54-4.55 143.54-2.95 143.54-1.35 144.24-1.35L144.24-1.35Q146.44-1.35 151.89-7.4L151.89-7.4Q151.99-7.5 152.24-7.85L152.24-7.85Q152.99-8.75 153.14-8.75 153.29-8.75 153.29-8.25 153.29-7.75 152.59-6.95L152.59-6.95Q146.39 0.1 143.79 0.1L143.79 0.1Q141.34 0.1 141.34-2.6 141.34-5.3 143.34-8.8L143.34-8.8 146.54-14Q143.14-11.5 140.49-8.53 137.84-5.55 135.66-2.75 133.49 0.05 133.14 0.05L133.14 0.05Q132.39 0.05 131.96-0.58 131.54-1.2 131.54-2.13 131.54-3.05 132.19-4.6 132.84-6.15 133.84-8.35L133.84-8.35 130.84-5.2Q129.74-4.1 129.46-4.1 129.19-4.1 129.19-4.42 129.19-4.75 129.59-5.15L129.59-5.15Q131.44-7 132.79-8.7L132.79-8.7Q134.09-10.4 138.14-15.2L138.14-15.2Q138.59-15.8 139.09-15.8Z" opacity="1" transform="matrix(1,0,0,1,0,0)" fill="white" class="wordmark-text-0" id="SvgjsPath1919"></path></svg></g></svg></g></svg></g></svg></g><g transform="matrix(1,0,0,1,77.26734296977659,0)"><svg viewBox="0 0 101.46531406044681 101.46531406044681" height="101.46531406044681" width="101.46531406044681"><g><svg xmlns="http://www.w3.org/2000/svg" data-name="Layer 1" viewBox="0 0 128 128" x="0" y="0" height="101.46531406044681" width="101.46531406044681" class="icon-icon-0" data-fill-palette-color="accent" id="SvgjsSvg1918"><path d="M44 63A2 2 0 0 0 46 61V57.74C46 51.46 49.45 48 55.72 48H56.27A16.1 16.1 0 0 1 51.88 44.42C45.7 45.8 42 50.63 42 57.74V61A2 2 0 0 0 44 63" fill="black"></path><path d="M84 62A2 2 0 0 0 86 60V57.74C86 50.64 82.3 45.8 76.12 44.42A16.1 16.1 0 0 1 71.73 48H72.28C78.55 48 82 51.46 82 57.74V60A2 2 0 0 0 84 62" fill="black"></path><path d="M76 34A12 12 0 1 0 64 46 12 12 0 0 0 76 34M56 34A8 8 0 1 1 64 42 8 8 0 0 1 56 34" fill="black"></path><path d="M96 62A2 2 0 0 0 98 60V48A6 6 0 0 0 92 42H88A2 2 0 0 0 88 46H92A2 2 0 0 1 94 48V60A2 2 0 0 0 96 62" fill="black"></path><path d="M22 47H26.05A9.9 9.9 0 0 1 27.35 43H22A2 2 0 0 1 20 41V6A2 2 0 0 1 22 4H106A2 2 0 0 1 108 6V41A2 2 0 0 1 106 43H100.65A9.9 9.9 0 0 1 101.95 47H106A6 6 0 0 0 112 41V6A6 6 0 0 0 106 0H22A6 6 0 0 0 16 6V41A6 6 0 0 0 22 47" fill="black"></path><path d="M40 42H36A6 6 0 0 0 30 48V60A2 2 0 0 0 34 60V48A2 2 0 0 1 36 46H40A2 2 0 0 0 40 42" fill="black"></path><path d="M53 14A2 2 0 0 0 53 10H47A2 2 0 0 0 47 14Z" fill="black"></path><path d="M67 14A2 2 0 0 0 67 10H61A2 2 0 0 0 61 14Z" fill="black"></path><path d="M81 14A2 2 0 0 0 81 10H75A2 2 0 0 0 75 14Z" fill="black"></path><path d="M64 100A11 11 0 1 0 53 89 11 11 0 0 0 64 100M64 82A7 7 0 1 1 57 89 7 7 0 0 1 64 82" fill="black"></path><path d="M72.54 104H55.46C48.32 104 45 107.26 45 114.25V126A2 2 0 0 0 49 126V114.25C49 109.52 50.57 108 55.46 108H72.54C77.43 108 79 109.52 79 114.25V126A2 2 0 0 0 83 126V114.25C83 107.26 79.68 104 72.54 104" fill="black"></path><path d="M109 78A11 11 0 1 0 120 89 11 11 0 0 0 109 78M109 96A7 7 0 1 1 116 89 7 7 0 0 1 109 96" fill="black"></path><path d="M117.54 104H100.46C93.32 104 90 107.26 90 114.25V126A2 2 0 0 0 94 126V114.25C94 109.52 95.57 108 100.46 108H117.54C122.43 108 124 109.52 124 114.25V126A2 2 0 0 0 128 126V114.25C128 107.26 124.68 104 117.54 104" fill="black"></path><path d="M49 76A2 2 0 0 0 47 74H43A2 2 0 0 0 43 78H47A2 2 0 0 0 49 76" fill="black"></path><path d="M86 74H82A2 2 0 0 0 82 78H86A2 2 0 0 0 86 74" fill="black"></path><path d="M98.54 78.27L91.71 67A2 2 0 0 0 90 66H83.32A2 2 0 0 0 82.99 65.76L66.11 56.11 67.22 54.65A0.43 0.43 0 0 1 67.76 54.55L76.15 59.37A2 2 0 0 0 78.15 55.9L69.68 51A4.42 4.42 0 0 0 64.05 52.17L63.5 52.89 62.94 52.15A4.44 4.44 0 0 0 57.25 51.04L48.86 55.9A2 2 0 1 0 50.86 59.37L59.18 54.59C59.33 54.51 59.61 54.42 59.78 54.59L60.9 56.06 44 65.76A2 2 0 0 0 43.67 66H39A2 2 0 0 0 37.3 66.94L29.92 78.75A15 15 0 0 1 32.41 82.32L40.11 70H88.87L95.92 81.67A15 15 0 0 1 98.54 78.27M62.82 59.61A4.4 4.4 0 0 0 63.5 59.15 4 4 0 0 0 64.13 59.58L75.35 66H51.65Z" fill="black"></path><path d="M19 100A11 11 0 1 0 8 89 11 11 0 0 0 19 100M19 82A7 7 0 1 1 12 89 7 7 0 0 1 19 82" fill="black"></path><path d="M27.54 104H10.46C3.32 104 0 107.26 0 114.25V126A2 2 0 0 0 4 126V114.25C4 109.52 5.57 108 10.46 108H27.54C32.43 108 34 109.52 34 114.25V126A2 2 0 0 0 38 126V114.25C38 107.26 34.68 104 27.54 104" fill="black"></path><path d="M2 16A2 2 0 0 0 4 14V2A2 2 0 0 0 0 2V14A2 2 0 0 0 2 16" fill="black"></path><path d="M10 8A2 2 0 0 0 12 6V2A2 2 0 0 0 8 2V6A2 2 0 0 0 10 8" fill="black"></path><path d="M126 0A2 2 0 0 0 124 2V14A2 2 0 0 0 128 14V2A2 2 0 0 0 126 0" fill="black"></path><path d="M118 8A2 2 0 0 0 120 6V2A2 2 0 0 0 116 2V6A2 2 0 0 0 118 8" fill="black"></path></svg></g></svg></g><g></g></svg></g></svg></g></svg></g></svg></g><defs><mask></mask></defs></svg><rect width="512" height="320" fill="black" stroke="none" visibility="hidden"></rect></g></mask><linearGradient x1="0" x2="1" y1="0.548" y2="0.55" id="0c5b9cd3-06ac-4d8c-a739-599f6a42e0f5"><stop stop-color="#ff6cab" offset="0"></stop><stop stop-color="#7366ff" offset="1"></stop></linearGradient><rect width="512" height="320" fill="url(#0c5b9cd3-06ac-4d8c-a739-599f6a42e0f5)" mask="url(#30e0867d-4e28-4b2f-acf2-13dee2d895ac)" data-fill-palette-color="primary"></rect><mask id="3b0f1dba-c3b5-4fdf-88c9-1923d10d69a8"><g id="SvgjsG1941"><svg viewBox="0 0 512 320" height="320" width="512"><g><svg></svg></g><g><svg viewBox="0 0 512 320" height="320" width="512"><g><path d="M96 160c0-88.366 71.634-160 160-160 88.366 0 160 71.634 160 160 0 88.366-71.634 160-160 160-88.366 0-160-71.634-160-160zM256 308.977c82.278 0 148.977-66.699 148.977-148.977 0-82.278-66.699-148.977-148.977-148.977-82.278 0-148.977 66.699-148.977 148.977 0 82.278 66.699 148.977 148.977 148.977z" fill="white" fill-rule="nonzero" stroke="none" stroke-width="1" stroke-linecap="butt" stroke-linejoin="miter" stroke-miterlimit="10" stroke-dasharray="" stroke-dashoffset="0" font-family="none" font-weight="none" font-size="none" text-anchor="none" style="mix-blend-mode: normal"></path></g><g transform="matrix(1,0,0,1,149.4537566298676,80)"><svg viewBox="0 0 213.0924867402648 160" height="160" width="213.0924867402648"><g><svg viewBox="0 0 213.0924867402648 160" height="160" width="213.0924867402648"><g><svg viewBox="0 0 256 192.21700692772674" height="160" width="213.0924867402648"><g transform="matrix(1,0,0,1,0,118.79782164520373)"><svg viewBox="0 0 256 73.41918528252302" height="73.41918528252302" width="256"><g id="SvgjsG1940"><svg viewBox="0 0 256 73.41918528252302" height="73.41918528252302" width="256" id="SvgjsSvg1939"><g><svg viewBox="0 0 256 73.41918528252302" height="73.41918528252302" width="256"><g transform="matrix(1,0,0,1,0,0)"><svg width="256" viewBox="1.1 -37.2 152.19 43.650000000000006" height="73.41918528252302" data-palette-color="url(#0c5b9cd3-06ac-4d8c-a739-599f6a42e0f5)"></svg></g></svg></g></svg></g></svg></g><g transform="matrix(1,0,0,1,77.26734296977659,0)"><svg viewBox="0 0 101.46531406044681 101.46531406044681" height="101.46531406044681" width="101.46531406044681"><g><svg xmlns="http://www.w3.org/2000/svg" data-name="Layer 1" viewBox="0 0 128 128" x="0" y="0" height="101.46531406044681" width="101.46531406044681" class="icon-icon-0" data-fill-palette-color="accent" id="SvgjsSvg1938"><path d="M44 63A2 2 0 0 0 46 61V57.74C46 51.46 49.45 48 55.72 48H56.27A16.1 16.1 0 0 1 51.88 44.42C45.7 45.8 42 50.63 42 57.74V61A2 2 0 0 0 44 63" fill="black"></path><path d="M84 62A2 2 0 0 0 86 60V57.74C86 50.64 82.3 45.8 76.12 44.42A16.1 16.1 0 0 1 71.73 48H72.28C78.55 48 82 51.46 82 57.74V60A2 2 0 0 0 84 62" fill="black"></path><path d="M76 34A12 12 0 1 0 64 46 12 12 0 0 0 76 34M56 34A8 8 0 1 1 64 42 8 8 0 0 1 56 34" fill="black"></path><path d="M96 62A2 2 0 0 0 98 60V48A6 6 0 0 0 92 42H88A2 2 0 0 0 88 46H92A2 2 0 0 1 94 48V60A2 2 0 0 0 96 62" fill="black"></path><path d="M22 47H26.05A9.9 9.9 0 0 1 27.35 43H22A2 2 0 0 1 20 41V6A2 2 0 0 1 22 4H106A2 2 0 0 1 108 6V41A2 2 0 0 1 106 43H100.65A9.9 9.9 0 0 1 101.95 47H106A6 6 0 0 0 112 41V6A6 6 0 0 0 106 0H22A6 6 0 0 0 16 6V41A6 6 0 0 0 22 47" fill="black"></path><path d="M40 42H36A6 6 0 0 0 30 48V60A2 2 0 0 0 34 60V48A2 2 0 0 1 36 46H40A2 2 0 0 0 40 42" fill="black"></path><path d="M53 14A2 2 0 0 0 53 10H47A2 2 0 0 0 47 14Z" fill="black"></path><path d="M67 14A2 2 0 0 0 67 10H61A2 2 0 0 0 61 14Z" fill="black"></path><path d="M81 14A2 2 0 0 0 81 10H75A2 2 0 0 0 75 14Z" fill="black"></path><path d="M64 100A11 11 0 1 0 53 89 11 11 0 0 0 64 100M64 82A7 7 0 1 1 57 89 7 7 0 0 1 64 82" fill="black"></path><path d="M72.54 104H55.46C48.32 104 45 107.26 45 114.25V126A2 2 0 0 0 49 126V114.25C49 109.52 50.57 108 55.46 108H72.54C77.43 108 79 109.52 79 114.25V126A2 2 0 0 0 83 126V114.25C83 107.26 79.68 104 72.54 104" fill="black"></path><path d="M109 78A11 11 0 1 0 120 89 11 11 0 0 0 109 78M109 96A7 7 0 1 1 116 89 7 7 0 0 1 109 96" fill="black"></path><path d="M117.54 104H100.46C93.32 104 90 107.26 90 114.25V126A2 2 0 0 0 94 126V114.25C94 109.52 95.57 108 100.46 108H117.54C122.43 108 124 109.52 124 114.25V126A2 2 0 0 0 128 126V114.25C128 107.26 124.68 104 117.54 104" fill="black"></path><path d="M49 76A2 2 0 0 0 47 74H43A2 2 0 0 0 43 78H47A2 2 0 0 0 49 76" fill="black"></path><path d="M86 74H82A2 2 0 0 0 82 78H86A2 2 0 0 0 86 74" fill="black"></path><path d="M98.54 78.27L91.71 67A2 2 0 0 0 90 66H83.32A2 2 0 0 0 82.99 65.76L66.11 56.11 67.22 54.65A0.43 0.43 0 0 1 67.76 54.55L76.15 59.37A2 2 0 0 0 78.15 55.9L69.68 51A4.42 4.42 0 0 0 64.05 52.17L63.5 52.89 62.94 52.15A4.44 4.44 0 0 0 57.25 51.04L48.86 55.9A2 2 0 1 0 50.86 59.37L59.18 54.59C59.33 54.51 59.61 54.42 59.78 54.59L60.9 56.06 44 65.76A2 2 0 0 0 43.67 66H39A2 2 0 0 0 37.3 66.94L29.92 78.75A15 15 0 0 1 32.41 82.32L40.11 70H88.87L95.92 81.67A15 15 0 0 1 98.54 78.27M62.82 59.61A4.4 4.4 0 0 0 63.5 59.15 4 4 0 0 0 64.13 59.58L75.35 66H51.65Z" fill="black"></path><path d="M19 100A11 11 0 1 0 8 89 11 11 0 0 0 19 100M19 82A7 7 0 1 1 12 89 7 7 0 0 1 19 82" fill="black"></path><path d="M27.54 104H10.46C3.32 104 0 107.26 0 114.25V126A2 2 0 0 0 4 126V114.25C4 109.52 5.57 108 10.46 108H27.54C32.43 108 34 109.52 34 114.25V126A2 2 0 0 0 38 126V114.25C38 107.26 34.68 104 27.54 104" fill="black"></path><path d="M2 16A2 2 0 0 0 4 14V2A2 2 0 0 0 0 2V14A2 2 0 0 0 2 16" fill="black"></path><path d="M10 8A2 2 0 0 0 12 6V2A2 2 0 0 0 8 2V6A2 2 0 0 0 10 8" fill="black"></path><path d="M126 0A2 2 0 0 0 124 2V14A2 2 0 0 0 128 14V2A2 2 0 0 0 126 0" fill="black"></path><path d="M118 8A2 2 0 0 0 120 6V2A2 2 0 0 0 116 2V6A2 2 0 0 0 118 8" fill="black"></path></svg></g></svg></g><g></g></svg></g></svg></g></svg></g></svg></g><defs><mask></mask></defs><mask><g id="SvgjsG1937"><svg viewBox="0 0 512 320" height="320" width="512"><g><svg></svg></g><g><svg viewBox="0 0 512 320" height="320" width="512"><g><path d="M96 160c0-88.366 71.634-160 160-160 88.366 0 160 71.634 160 160 0 88.366-71.634 160-160 160-88.366 0-160-71.634-160-160zM256 308.977c82.278 0 148.977-66.699 148.977-148.977 0-82.278-66.699-148.977-148.977-148.977-82.278 0-148.977 66.699-148.977 148.977 0 82.278 66.699 148.977 148.977 148.977z" fill="black" fill-rule="nonzero" stroke="none" stroke-width="1" stroke-linecap="butt" stroke-linejoin="miter" stroke-miterlimit="10" stroke-dasharray="" stroke-dashoffset="0" font-family="none" font-weight="none" font-size="none" text-anchor="none" style="mix-blend-mode: normal"></path></g><g transform="matrix(1,0,0,1,149.4537566298676,80)"><svg viewBox="0 0 213.0924867402648 160" height="160" width="213.0924867402648"><g><svg viewBox="0 0 213.0924867402648 160" height="160" width="213.0924867402648"><g><svg viewBox="0 0 256 192.21700692772674" height="160" width="213.0924867402648"><g transform="matrix(1,0,0,1,0,118.79782164520373)"><svg viewBox="0 0 256 73.41918528252302" height="73.41918528252302" width="256"><g id="SvgjsG1936"><svg viewBox="0 0 256 73.41918528252302" height="73.41918528252302" width="256" id="SvgjsSvg1935"><g><svg viewBox="0 0 256 73.41918528252302" height="73.41918528252302" width="256"><g transform="matrix(1,0,0,1,0,0)"><svg width="256" viewBox="1.1 -37.2 152.19 43.650000000000006" height="73.41918528252302" data-palette-color="url(#0c5b9cd3-06ac-4d8c-a739-599f6a42e0f5)"><path d="M41.6-34.85L41.6-34.85Q42.65-34.85 42.65-34.1L42.65-34.1Q42.65-31.05 34.25-16.65L34.25-16.65Q34.6-15.3 35.35-13.5L35.35-13.5 50.25-24.85Q58.8-31.35 61.8-33.2L61.8-33.2Q68.5-37.2 74.95-37.2L74.95-37.2Q76.8-37.2 78.35-36.6L78.35-36.6Q79.3-36.25 79.3-35.3 79.3-34.35 78.8-34.35L78.8-34.35Q78.5-34.35 78.18-34.75 77.85-35.15 76.28-35.15 74.7-35.15 71.15-34.35L71.15-34.35Q65.55-33.1 58.45-28.75L58.45-28.75Q54-26 46.55-20.3 39.1-14.6 35.8-12.45L35.8-12.45Q38.35-7.1 42.35-2.5L42.35-2.5Q48.5 4.65 53.4 4.65L53.4 4.65Q55.8 4.65 55.8 2.8L55.8 2.8Q55.8 2.45 55.73 2.1 55.65 1.75 55.9 1.25 56.15 0.75 56.5 0.75L56.5 0.75Q57.15 0.75 57.35 2.3L57.35 2.3Q57.4 2.55 57.4 2.8L57.4 2.8Q57.4 4.4 55.78 5.43 54.15 6.45 51.93 6.45 49.7 6.45 48.2 5.75L48.2 5.75Q44.25 3.8 40.23-1.1 36.2-6 34.05-11.4L34.05-11.4Q31.3-9.8 29.5-9.65L29.5-9.65Q26.15-5.3 21.25-1.2L21.25-1.2Q18.6 1.05 15.5 2.43 12.4 3.8 9.55 3.8L9.55 3.8Q5.5 3.8 3.3 1.78 1.1-0.25 1.1-4.4L1.1-4.4Q1.1-6.45 1.9-8.2L1.9-8.2Q4.45-13.85 9.6-16L9.6-16Q12.45-17.25 15.28-17.25 18.1-17.25 19.05-15.4L19.05-15.4Q19.4-14.75 19.4-14.03 19.4-13.3 19.2-13.1 19-12.9 18.65-13.45L18.65-13.45Q17.45-15.65 16.1-15.9L16.1-15.9Q15.2-16 14.8-16L14.8-16Q10.9-16 7.5-12.75L7.5-12.75Q3.1-8.5 3.1-3.55L3.1-3.55Q3.1 1.85 9.2 2.55L9.2 2.55Q9.4 2.55 9.6 2.55L9.6 2.55Q11.8 2.55 15.25 0.6L15.25 0.6Q20.85-2.6 27.2-10.4L27.2-10.4Q26.05-11.45 26.05-13.5 26.05-15.55 27.58-17.38 29.1-19.2 31.75-19.2L31.75-19.2Q32.5-19.2 33.15-19.05L33.15-19.05Q35.65-23.25 38-28.13 40.35-33 40.35-33.75L40.35-33.75Q40.35-33.85 40.05-33.85 39.75-33.85 36.58-32.27 33.4-30.7 32.05-29.8 30.7-28.9 28.75-26.98 26.8-25.05 26.8-23.85L26.8-23.85Q26.8-23.3 27.58-22.75 28.35-22.2 30.4-22.2L30.4-22.2Q30.65-22.1 30.65-21.93 30.65-21.75 29.28-21.53 27.9-21.3 27.1-21.3L27.1-21.3Q25.3-21.3 25.3-22.8L25.3-22.8Q25.3-24.55 27.45-27 29.6-29.45 32.15-30.85L32.15-30.85Q39.6-34.85 41.6-34.85ZM33.65-12.45L33.65-12.45Q33.25-13.45 33-14.45L33-14.45Q32-13 31-11.6L31-11.6Q31.5-11.6 31.9-11.68 32.3-11.75 33.65-12.45ZM31.75-16.75L31.75-16.75Q31.15-17 30.43-17 29.7-17 28.98-16.1 28.25-15.2 28.25-14.18 28.25-13.15 28.8-12.45L28.8-12.45Q31.25-15.95 31.75-16.75ZM63.4-14.95L63.4-14.95 64.1-15.1Q64.65-15.1 65.15-14.65 65.65-14.2 65.65-13.95 65.65-13.7 62.55-9.13 59.45-4.55 59.45-2.75L59.45-2.75Q59.45-2.6 59.5-2.45L59.5-2.45Q59.75-1.3 60.6-1.3L60.6-1.3Q63.2-1.3 70.1-9.9L70.1-9.9Q70.25-10.1 70.45-10.1 70.65-10.1 70.65-9.73 70.65-9.35 70.2-8.75L70.2-8.75Q63.8-0.2 60.45-0.2L60.45-0.2Q60-0.2 59.6-0.35L59.6-0.35Q57.4-1.2 57.4-3.65L57.4-3.65Q57.4-4.5 57.6-5.35L57.6-5.35 54.5-2.35Q51.55 0.25 50.22 0.25 48.9 0.25 47.7-0.6L47.7-0.6Q46.35-1.6 46.35-3.25L46.35-3.25Q46.35-6.9 51.45-11.98 56.55-17.05 60.8-17.05L60.8-17.05Q62.45-17.05 63-15.9L63-15.9Q63.15-15.5 63.25-15.23 63.35-14.95 63.4-14.95ZM48.45-2.65L48.45-2.65Q48.45-0.85 49.7-0.85L49.7-0.85Q52.6-0.85 57.6-7.2L57.6-7.2 62.9-14.5Q62.5-15.2 61.6-15.2L61.6-15.2Q58.55-15.2 53.5-10.48 48.45-5.75 48.45-2.65ZM77.6 0.25L77.6 0.25Q73.85 0.25 73.85-3.9L73.85-3.9Q73.85-6 74.95-8.5 76.05-11 77.35-12.7L77.35-12.7Q77.1-12.65 76.7-12.65L76.7-12.65Q75.5-12.65 74.7-14.35L74.7-14.35 71-9.55Q67.9-5.7 67.4-5.7L67.4-5.7Q67.15-5.7 67.15-5.9L67.15-5.9Q67.15-6.4 68-7.35L68-7.35Q72.35-12.4 74.15-15.9L74.15-15.9Q75.3-20.25 77.05-20.25L77.05-20.25Q78.2-20.25 78.2-19.25 78.2-18.25 76.95-16.7L76.95-16.7 75.75-15.1Q75.75-14.05 77.3-14.05L77.3-14.05Q78.2-14.05 79.3-14.7L79.3-14.7 80.6-15.5Q80.7-15.55 81.1-15.55 81.5-15.55 81.95-15.05 82.4-14.55 82.25-14.15L82.25-14.15 78.8-9.8Q75.6-5.7 75.6-3.33 75.6-0.95 77.8-0.95L77.8-0.95Q80.1-0.95 83.45-3.4L83.45-3.4Q85.45-4.85 87.1-6.65L87.1-6.65Q88.65-8.45 88.8-8.45L88.8-8.45Q89.15-8.45 89.15-8.08 89.15-7.7 88.7-7.2L88.7-7.2 87.1-5.4Q85.75-4 84.1-2.7L84.1-2.7Q80.15 0.25 77.6 0.25ZM103.49-15.15L103.49-15.15Q109.09-24.25 111.29-24.25L111.29-24.25Q111.64-24.25 112.27-24.03 112.89-23.8 112.89-23.35L112.89-23.35Q112.89-23.1 112.64-22.7L112.64-22.7Q108.64-17.8 106.69-15.35L106.69-15.35Q100.79-7.9 100.19-4.65L100.19-4.65Q100.04-3.95 100.04-3.25L100.04-3.25Q100.04-1 101.89-1L101.89-1Q105.59-1 111.54-7.85L111.54-7.85Q112.04-8.35 112.39-8.43 112.74-8.5 112.74-8.25 112.74-8 112.44-7.65L112.44-7.65Q106.64-0.7 102.14 0.1L102.14 0.1Q101.89 0.15 101.44 0.15L101.44 0.15Q99.89 0.15 99.12-0.93 98.34-2 98.34-3.25L98.34-3.25Q98.34-4.65 98.89-6.35L98.89-6.35 94.84-2.3Q92.09 0.25 90.52 0.25 88.94 0.25 87.89-0.6L87.89-0.6Q86.64-1.55 86.64-3.25L86.64-3.25Q86.64-6.9 91.74-11.98 96.84-17.05 101.09-17.05L101.09-17.05Q102.49-17.05 103.04-16.3L103.04-16.3Q103.24-16.05 103.49-15.15ZM88.74-2.65L88.74-2.65Q88.74-0.85 89.99-0.85L89.99-0.85Q92.14-0.85 97.14-6.75L97.14-6.75Q98.04-7.8 103.14-14.6L103.14-14.6Q102.79-15.2 101.94-15.2L101.94-15.2Q98.84-15.2 93.79-10.48 88.74-5.75 88.74-2.65ZM127.04-14.95L127.04-14.95 127.74-15.1Q128.29-15.1 128.79-14.65 129.29-14.2 129.29-13.95 129.29-13.7 126.19-9.13 123.09-4.55 123.09-2.75L123.09-2.75Q123.09-2.6 123.14-2.45L123.14-2.45Q123.39-1.3 124.24-1.3L124.24-1.3Q126.84-1.3 133.74-9.9L133.74-9.9Q133.89-10.1 134.09-10.1 134.29-10.1 134.29-9.73 134.29-9.35 133.84-8.75L133.84-8.75Q127.44-0.2 124.09-0.2L124.09-0.2Q123.64-0.2 123.24-0.35L123.24-0.35Q121.04-1.2 121.04-3.65L121.04-3.65Q121.04-4.5 121.24-5.35L121.24-5.35 118.14-2.35Q115.19 0.25 113.87 0.25 112.54 0.25 111.34-0.6L111.34-0.6Q109.99-1.6 109.99-3.25L109.99-3.25Q109.99-6.9 115.09-11.98 120.19-17.05 124.44-17.05L124.44-17.05Q126.09-17.05 126.64-15.9L126.64-15.9Q126.79-15.5 126.89-15.23 126.99-14.95 127.04-14.95ZM112.09-2.65L112.09-2.65Q112.09-0.85 113.34-0.85L113.34-0.85Q116.24-0.85 121.24-7.2L121.24-7.2 126.54-14.5Q126.14-15.2 125.24-15.2L125.24-15.2Q122.19-15.2 117.14-10.48 112.09-5.75 112.09-2.65ZM139.09-15.8L139.09-15.8Q140.44-15.8 140.44-14.75L140.44-14.75Q140.44-14.45 140.29-14.15L140.29-14.15Q135.79-7.9 134.89-4.7L134.89-4.7Q146.54-16.35 149.04-16.35L149.04-16.35Q149.29-16.4 149.49-16.4L149.49-16.4Q150.89-16.4 150.89-15.15L150.89-15.15Q150.89-14.9 150.79-14.65 150.69-14.4 148.79-11.95L148.79-11.95Q146.59-9.35 145.06-6.95 143.54-4.55 143.54-2.95 143.54-1.35 144.24-1.35L144.24-1.35Q146.44-1.35 151.89-7.4L151.89-7.4Q151.99-7.5 152.24-7.85L152.24-7.85Q152.99-8.75 153.14-8.75 153.29-8.75 153.29-8.25 153.29-7.75 152.59-6.95L152.59-6.95Q146.39 0.1 143.79 0.1L143.79 0.1Q141.34 0.1 141.34-2.6 141.34-5.3 143.34-8.8L143.34-8.8 146.54-14Q143.14-11.5 140.49-8.53 137.84-5.55 135.66-2.75 133.49 0.05 133.14 0.05L133.14 0.05Q132.39 0.05 131.96-0.58 131.54-1.2 131.54-2.13 131.54-3.05 132.19-4.6 132.84-6.15 133.84-8.35L133.84-8.35 130.84-5.2Q129.74-4.1 129.46-4.1 129.19-4.1 129.19-4.42 129.19-4.75 129.59-5.15L129.59-5.15Q131.44-7 132.79-8.7L132.79-8.7Q134.09-10.4 138.14-15.2L138.14-15.2Q138.59-15.8 139.09-15.8Z" opacity="1" transform="matrix(1,0,0,1,0,0)" fill="black" class="wordmark-text-0" id="SvgjsPath1934"></path></svg></g></svg></g></svg></g></svg></g><g transform="matrix(1,0,0,1,77.26734296977659,0)"><svg viewBox="0 0 101.46531406044681 101.46531406044681" height="101.46531406044681" width="101.46531406044681"><g><svg xmlns="http://www.w3.org/2000/svg" data-name="Layer 1" viewBox="0 0 128 128" x="0" y="0" height="101.46531406044681" width="101.46531406044681" class="icon-icon-0" data-fill-palette-color="accent" id="SvgjsSvg1933"><path d="M44 63A2 2 0 0 0 46 61V57.74C46 51.46 49.45 48 55.72 48H56.27A16.1 16.1 0 0 1 51.88 44.42C45.7 45.8 42 50.63 42 57.74V61A2 2 0 0 0 44 63" fill="black"></path><path d="M84 62A2 2 0 0 0 86 60V57.74C86 50.64 82.3 45.8 76.12 44.42A16.1 16.1 0 0 1 71.73 48H72.28C78.55 48 82 51.46 82 57.74V60A2 2 0 0 0 84 62" fill="black"></path><path d="M76 34A12 12 0 1 0 64 46 12 12 0 0 0 76 34M56 34A8 8 0 1 1 64 42 8 8 0 0 1 56 34" fill="black"></path><path d="M96 62A2 2 0 0 0 98 60V48A6 6 0 0 0 92 42H88A2 2 0 0 0 88 46H92A2 2 0 0 1 94 48V60A2 2 0 0 0 96 62" fill="black"></path><path d="M22 47H26.05A9.9 9.9 0 0 1 27.35 43H22A2 2 0 0 1 20 41V6A2 2 0 0 1 22 4H106A2 2 0 0 1 108 6V41A2 2 0 0 1 106 43H100.65A9.9 9.9 0 0 1 101.95 47H106A6 6 0 0 0 112 41V6A6 6 0 0 0 106 0H22A6 6 0 0 0 16 6V41A6 6 0 0 0 22 47" fill="black"></path><path d="M40 42H36A6 6 0 0 0 30 48V60A2 2 0 0 0 34 60V48A2 2 0 0 1 36 46H40A2 2 0 0 0 40 42" fill="black"></path><path d="M53 14A2 2 0 0 0 53 10H47A2 2 0 0 0 47 14Z" fill="black"></path><path d="M67 14A2 2 0 0 0 67 10H61A2 2 0 0 0 61 14Z" fill="black"></path><path d="M81 14A2 2 0 0 0 81 10H75A2 2 0 0 0 75 14Z" fill="black"></path><path d="M64 100A11 11 0 1 0 53 89 11 11 0 0 0 64 100M64 82A7 7 0 1 1 57 89 7 7 0 0 1 64 82" fill="black"></path><path d="M72.54 104H55.46C48.32 104 45 107.26 45 114.25V126A2 2 0 0 0 49 126V114.25C49 109.52 50.57 108 55.46 108H72.54C77.43 108 79 109.52 79 114.25V126A2 2 0 0 0 83 126V114.25C83 107.26 79.68 104 72.54 104" fill="black"></path><path d="M109 78A11 11 0 1 0 120 89 11 11 0 0 0 109 78M109 96A7 7 0 1 1 116 89 7 7 0 0 1 109 96" fill="black"></path><path d="M117.54 104H100.46C93.32 104 90 107.26 90 114.25V126A2 2 0 0 0 94 126V114.25C94 109.52 95.57 108 100.46 108H117.54C122.43 108 124 109.52 124 114.25V126A2 2 0 0 0 128 126V114.25C128 107.26 124.68 104 117.54 104" fill="black"></path><path d="M49 76A2 2 0 0 0 47 74H43A2 2 0 0 0 43 78H47A2 2 0 0 0 49 76" fill="black"></path><path d="M86 74H82A2 2 0 0 0 82 78H86A2 2 0 0 0 86 74" fill="black"></path><path d="M98.54 78.27L91.71 67A2 2 0 0 0 90 66H83.32A2 2 0 0 0 82.99 65.76L66.11 56.11 67.22 54.65A0.43 0.43 0 0 1 67.76 54.55L76.15 59.37A2 2 0 0 0 78.15 55.9L69.68 51A4.42 4.42 0 0 0 64.05 52.17L63.5 52.89 62.94 52.15A4.44 4.44 0 0 0 57.25 51.04L48.86 55.9A2 2 0 1 0 50.86 59.37L59.18 54.59C59.33 54.51 59.61 54.42 59.78 54.59L60.9 56.06 44 65.76A2 2 0 0 0 43.67 66H39A2 2 0 0 0 37.3 66.94L29.92 78.75A15 15 0 0 1 32.41 82.32L40.11 70H88.87L95.92 81.67A15 15 0 0 1 98.54 78.27M62.82 59.61A4.4 4.4 0 0 0 63.5 59.15 4 4 0 0 0 64.13 59.58L75.35 66H51.65Z" fill="black"></path><path d="M19 100A11 11 0 1 0 8 89 11 11 0 0 0 19 100M19 82A7 7 0 1 1 12 89 7 7 0 0 1 19 82" fill="black"></path><path d="M27.54 104H10.46C3.32 104 0 107.26 0 114.25V126A2 2 0 0 0 4 126V114.25C4 109.52 5.57 108 10.46 108H27.54C32.43 108 34 109.52 34 114.25V126A2 2 0 0 0 38 126V114.25C38 107.26 34.68 104 27.54 104" fill="black"></path><path d="M2 16A2 2 0 0 0 4 14V2A2 2 0 0 0 0 2V14A2 2 0 0 0 2 16" fill="black"></path><path d="M10 8A2 2 0 0 0 12 6V2A2 2 0 0 0 8 2V6A2 2 0 0 0 10 8" fill="black"></path><path d="M126 0A2 2 0 0 0 124 2V14A2 2 0 0 0 128 14V2A2 2 0 0 0 126 0" fill="black"></path><path d="M118 8A2 2 0 0 0 120 6V2A2 2 0 0 0 116 2V6A2 2 0 0 0 118 8" fill="black"></path></svg></g></svg></g><g></g></svg></g></svg></g></svg></g></svg></g><defs><mask></mask></defs></svg><rect width="512" height="320" fill="black" stroke="none" visibility="hidden"></rect></g></mask></svg><rect width="512" height="320" fill="black" stroke="none" visibility="hidden"></rect></g></mask><linearGradient x1="0" x2="1" y1="0.548" y2="0.55" id="26b21e62-8a6f-4e4f-aaa3-6404a66d2fcc"><stop stop-color="#ff6cab" offset="0"></stop><stop stop-color="#7366ff" offset="1"></stop></linearGradient></svg><rect width="512" height="320" fill="none" stroke="none" visibility="hidden"></rect></g></svg></g></svg>